<svg viewBox="0 0 47 47" xmlns="http://www.w3.org/2000/svg">
<linearGradient x1="14.381%" y1="87.77%" x2="100%" y2="19.743%" id="logo-gradient">
<stop stop-color="#2F3094" offset="0%" />
<stop stop-color="#1661FF" offset="100%" />
</linearGradient>
<g fill="none" fill-rule="evenodd">
<rect fill="url(#logo-gradient)" width="47.001" height="47.001" rx="12" />
<path
            d="M4.96 22.473c.49-.02.85-.127 1.08-.322.23-.195.346-.473.346-.833 0-.27-.05-.805-.15-1.605l-.09-.772c-.05-.435-.075-.828-.075-1.178 0-.85.26-1.512.78-1.987.52-.475 1.215-.713 2.085-.713h1.08v2.1H9.43c-.32 0-.55.07-.69.21-.14.14-.21.355-.21.645 0 .22.04.72.12 1.5.09.97.135 1.605.135 1.905 0 .55-.133 1.005-.398 1.365-.265.36-.667.59-1.207.69v.03c.54.11.942.343 1.207.698.265.355.398.812.398 1.372 0 .3-.045.935-.135 1.905-.08.76-.12 1.255-.12 1.485 0 .29.07.508.21.653.14.145.37.217.69.217h.585v2.1h-1.08c-.87 0-1.565-.237-2.085-.712s-.78-1.143-.78-2.003c0-.35.025-.742.075-1.177l.09-.773c.1-.8.15-1.335.15-1.605 0-.34-.115-.612-.345-.817-.23-.205-.59-.318-1.08-.338v-2.04Zm13.606 4.44h-3.93l-.63 1.86H11.32l3.81-10.53h2.97l3.81 10.53h-2.715l-.63-1.86Zm-.66-1.98L16.6 21.078l-1.29 3.855h2.595Zm13.185-3.3c0 .61-.14 1.168-.42 1.673-.28.505-.71.912-1.29 1.222-.58.31-1.3.465-2.16.465h-1.59v3.78h-2.565v-10.53h4.155c.84 0 1.55.145 2.13.435.58.29 1.015.69 1.305 1.2.29.51.435 1.095.435 1.755Zm-4.065 1.32c.49 0 .855-.115 1.095-.345.24-.23.36-.555.36-.975 0-.42-.12-.745-.36-.975-.24-.23-.605-.345-1.095-.345H25.63v2.64h1.395Zm7.965-4.71v10.53h-2.565v-10.53h2.565Zm7.05 6.27c-.49.02-.85.133-1.08.338-.23.205-.345.477-.345.817 0 .27.05.805.15 1.605l.09.773c.05.435.075.827.075 1.177 0 .86-.26 1.528-.78 2.003-.52.475-1.215.712-2.085.712h-1.08v-2.1h.585c.32 0 .55-.072.69-.217.14-.145.21-.363.21-.653 0-.23-.04-.725-.12-1.485-.09-.97-.135-1.605-.135-1.905 0-.56.132-1.017.397-1.372.265-.355.668-.588 1.208-.698v-.03c-.54-.1-.943-.33-1.208-.69-.265-.36-.397-.815-.397-1.365 0-.3.045-.935.135-1.905.08-.78.12-1.28.12-1.5 0-.29-.07-.505-.21-.645-.14-.14-.37-.21-.69-.21h-.585v-2.1h1.08c.87 0 1.565.238 2.085.713s.78 1.137.78 1.987c0 .35-.025.743-.075 1.178l-.09.772c-.1.8-.15 1.335-.15 1.605 0 .36.115.638.345.833.23.195.59.302 1.08.322v2.04Z"
            fill="#FFF"
            fill-rule="nonzero"
        />
</g>   
</svg>
